<?xml version="1.0" standalone="no"?>
<!DOCTYPE svg PUBLIC "-//W3C//DTD SVG 20010904//EN"
 "http://www.w3.org/TR/2001/REC-SVG-20010904/DTD/svg10.dtd">
<svg version="1.0" xmlns="http://www.w3.org/2000/svg"
 width="450.000000pt" height="450.000000pt" viewBox="0 0 450.000000 450.000000"
 preserveAspectRatio="xMidYMid meet">
<metadata>
Created by potrace 1.14, written by Peter Selinger 2001-2017
</metadata>
<g transform="translate(0.000000,450.000000) scale(0.100000,-0.100000)"
fill="#000000" stroke="none">
<path d="M2166 4292 c-4 -6 -2 -29 4 -51 6 -22 8 -58 4 -80 -9 -58 18 -55 41
4 17 45 15 75 -5 75 -5 0 -10 6 -10 13 0 22 -26 52 -34 39z"/>
<path d="M2340 4277 c0 -13 -9 -32 -20 -42 l-20 -18 20 -22 c11 -12 20 -28 20
-37 0 -18 26 -43 33 -31 2 4 2 45 -1 91 -3 60 -8 82 -18 82 -8 0 -14 -10 -14
-23z"/>
<path d="M2743 4273 c-7 -2 -13 -10 -13 -17 0 -7 -13 -27 -28 -44 -36 -40 -68
-99 -60 -108 10 -9 79 46 72 58 -3 5 -3 20 0 34 5 20 12 25 33 22 29 -3 50 20
40 46 -6 16 -21 19 -44 9z"/>
<path d="M1790 4252 c0 -4 -13 -13 -30 -20 -16 -8 -30 -20 -30 -28 0 -8 -6
-17 -14 -20 -8 -3 -17 -21 -21 -40 -5 -29 -1 -41 21 -67 28 -33 60 -56 82 -57
22 0 12 26 -19 49 -16 12 -39 36 -49 53 l-18 31 56 53 c39 36 51 54 40 54 -10
0 -18 -3 -18 -8z"/>
<path d="M2773 4161 c-9 -25 -7 -33 14 -60 28 -35 43 -40 43 -12 0 22 -26 87
-38 95 -4 2 -13 -8 -19 -23z"/>
<path d="M3120 4079 c-44 -86 -48 -117 -12 -81 13 13 22 34 22 52 0 26 5 31
31 37 46 9 63 73 19 73 -13 0 -31 -24 -60 -81z"/>
<path d="M1392 4055 c6 -14 17 -25 25 -25 20 0 16 28 -6 40 -29 15 -32 13 -19
-15z"/>
<path d="M3316 4065 c-3 -9 -6 -28 -6 -43 0 -23 2 -24 14 -12 18 19 24 62 10
67 -6 2 -14 -3 -18 -12z"/>
<path d="M1275 4049 c-4 -5 -4 -22 0 -37 6 -26 7 -26 21 -8 8 11 14 28 14 38
0 19 -25 25 -35 7z"/>
<path d="M2085 4020 c-27 -4 -70 -15 -94 -24 -24 -9 -58 -16 -75 -16 -18 0
-49 -9 -71 -20 -22 -11 -53 -20 -69 -20 -31 0 -147 -42 -181 -66 -11 -8 -27
-14 -37 -14 -9 0 -23 -6 -31 -14 -8 -8 -29 -22 -48 -31 -62 -30 -147 -81 -164
-100 -5 -6 -37 -28 -70 -50 -70 -46 -266 -238 -315 -310 -19 -27 -49 -69 -67
-93 -18 -24 -36 -55 -39 -68 -4 -14 -15 -29 -25 -34 -10 -6 -23 -28 -29 -49
-6 -21 -17 -42 -25 -45 -8 -3 -15 -15 -15 -27 0 -11 -9 -32 -20 -46 -11 -14
-20 -35 -20 -47 0 -11 -9 -34 -20 -51 -11 -16 -20 -40 -20 -53 0 -12 -9 -40
-20 -62 -11 -22 -20 -56 -20 -77 0 -21 -9 -62 -20 -91 -18 -48 -20 -76 -20
-337 0 -261 2 -289 20 -337 11 -29 20 -69 20 -88 0 -19 9 -50 20 -68 11 -18
20 -47 20 -65 0 -18 7 -42 15 -53 8 -10 20 -37 26 -59 6 -21 19 -50 30 -63 10
-14 19 -32 19 -42 0 -9 9 -25 20 -35 11 -10 20 -27 20 -38 0 -10 18 -41 40
-67 22 -26 40 -53 40 -60 0 -16 125 -165 217 -258 74 -75 88 -107 58 -132 -8
-6 -17 -22 -21 -33 -3 -12 -15 -32 -26 -43 -16 -18 -17 -22 -4 -27 21 -8 75
39 92 80 8 18 17 33 20 33 7 0 67 -43 79 -57 5 -7 21 -17 35 -23 14 -5 45 -26
70 -44 25 -19 51 -35 59 -35 8 -1 24 -9 35 -19 12 -10 50 -31 86 -46 36 -15
76 -33 90 -40 14 -8 41 -17 60 -21 19 -4 44 -13 55 -20 11 -6 42 -15 70 -20
27 -4 62 -13 77 -21 14 -7 53 -16 85 -19 32 -4 113 -13 180 -22 103 -13 137
-14 220 -4 54 7 139 16 188 21 50 4 107 15 127 24 21 9 50 16 65 16 16 0 44 9
64 19 20 11 52 23 72 26 20 4 41 13 48 21 6 8 19 14 28 14 9 0 46 16 81 35 36
19 80 42 99 50 18 9 38 20 45 26 19 16 87 59 93 59 24 0 353 309 353 333 0 4
20 28 45 55 25 26 45 52 45 57 0 6 18 34 39 63 22 29 43 62 47 75 4 12 15 33
25 46 11 13 19 33 19 45 0 12 9 29 20 39 11 9 20 27 20 39 0 13 9 38 20 56 11
18 20 44 20 59 0 14 8 40 19 57 10 17 21 54 24 83 3 29 14 67 24 85 16 30 17
65 17 343 0 297 -1 312 -22 363 -12 29 -22 68 -22 87 0 19 -9 49 -20 67 -11
18 -20 47 -20 64 0 17 -9 43 -20 57 -11 14 -20 33 -20 42 0 9 -9 28 -20 42
-11 14 -20 33 -20 43 0 10 -9 29 -20 43 -11 14 -20 32 -20 40 0 7 -9 22 -19
31 -11 10 -22 29 -26 44 -3 14 -23 46 -44 71 -21 25 -44 57 -51 71 -21 39
-218 237 -300 301 -41 32 -84 65 -95 74 -11 9 -30 21 -41 28 -12 7 -56 32 -98
55 -42 24 -78 48 -82 53 -3 5 -13 9 -23 9 -10 0 -30 9 -44 20 -14 11 -36 20
-49 20 -23 0 -48 16 -48 32 0 4 12 19 27 34 l27 27 -34 -6 c-19 -4 -44 -16
-55 -27 -27 -25 -59 -25 -99 -1 -17 10 -58 21 -91 24 -33 3 -80 12 -105 21
-35 13 -92 18 -250 21 -113 2 -227 0 -255 -5z m565 -81 c14 -9 52 -19 84 -22
79 -8 86 -16 57 -75 -14 -26 -33 -63 -43 -83 -10 -20 -18 -49 -18 -65 0 -15
-7 -35 -15 -44 -8 -9 -21 -50 -29 -91 -8 -41 -19 -94 -25 -119 -6 -25 -10 -68
-11 -97 0 -30 -6 -57 -14 -66 -9 -9 -11 -19 -5 -28 14 -22 11 -67 -7 -101 -9
-17 -16 -47 -16 -67 1 -20 1 -103 1 -186 0 -116 4 -157 16 -179 8 -15 15 -36
15 -45 0 -18 70 -81 89 -81 11 0 31 32 31 49 0 6 -7 11 -15 11 -30 0 -37 40
-36 209 2 242 26 463 60 552 5 15 6 31 0 40 -14 22 -11 77 7 111 9 16 18 56
21 87 4 31 12 65 19 76 7 11 16 41 19 68 12 80 55 96 127 48 24 -16 61 -34 83
-41 62 -17 233 -122 315 -192 8 -7 42 -35 75 -63 62 -51 175 -169 175 -182 0
-5 17 -27 38 -50 75 -86 82 -95 82 -113 0 -11 6 -23 14 -27 7 -4 30 -39 51
-78 20 -38 41 -74 45 -80 4 -5 11 -24 14 -42 4 -17 14 -37 22 -44 8 -6 14 -23
14 -38 0 -14 9 -41 20 -58 11 -18 24 -60 29 -94 6 -33 16 -68 23 -77 9 -10 15
-63 18 -161 4 -103 9 -152 19 -167 12 -19 13 -39 2 -135 -6 -63 -16 -156 -21
-208 -5 -51 -15 -103 -23 -115 -8 -11 -17 -47 -21 -78 -4 -31 -13 -62 -21 -68
-7 -6 -17 -30 -20 -53 -4 -23 -16 -53 -26 -66 -11 -13 -19 -31 -19 -39 0 -20
-49 -118 -66 -133 -8 -6 -14 -19 -14 -29 0 -9 -11 -30 -25 -46 -38 -43 -41
-48 -60 -84 -22 -42 -306 -327 -365 -366 -24 -16 -57 -37 -74 -48 -17 -10 -32
-22 -34 -27 -2 -5 -9 -9 -16 -9 -8 0 -24 -8 -37 -19 -13 -10 -35 -22 -49 -26
-14 -4 -36 -16 -49 -26 -13 -11 -31 -19 -41 -19 -10 0 -29 -9 -43 -20 -14 -11
-36 -20 -49 -20 -12 0 -34 -9 -48 -20 -15 -11 -41 -20 -63 -20 -21 0 -55 -9
-77 -20 -22 -11 -59 -20 -82 -20 -24 0 -83 -9 -132 -20 -125 -28 -329 -28
-444 0 -46 11 -102 20 -126 20 -23 0 -59 9 -81 20 -22 11 -52 20 -67 20 -26 0
-66 15 -163 61 -22 11 -47 19 -56 19 -9 0 -27 9 -41 19 -13 11 -37 23 -52 27
-15 3 -30 12 -33 20 -2 7 -17 17 -31 23 -15 6 -47 26 -72 45 -25 19 -49 35
-53 35 -5 1 -26 15 -48 33 -45 36 -48 56 -19 119 11 24 20 63 20 86 0 23 5 64
10 90 28 129 37 426 22 678 l-7 110 -30 3 c-23 2 -39 -6 -67 -33 -43 -41 -46
-55 -18 -73 20 -12 21 -21 20 -424 -1 -254 -5 -419 -11 -430 -15 -29 -46 -14
-107 50 -84 89 -142 158 -142 169 0 5 -11 23 -25 39 -14 16 -35 49 -47 73 -13
25 -31 53 -40 63 -10 10 -18 27 -18 38 0 11 -9 29 -20 40 -11 11 -20 30 -20
42 0 12 -7 29 -16 39 -9 10 -20 39 -25 65 -5 26 -16 55 -24 64 -8 9 -15 32
-15 51 -1 19 -8 52 -16 74 -18 46 -28 104 -44 265 -10 96 -9 146 5 300 9 102
22 201 30 220 8 19 17 55 21 80 3 25 15 59 25 76 10 17 19 41 19 53 0 12 9 39
19 59 11 20 34 66 51 102 17 36 42 83 55 105 13 22 30 51 37 65 19 37 153 207
212 268 28 30 74 69 101 87 28 19 68 51 90 72 43 40 62 54 111 77 17 8 36 22
44 30 7 9 21 16 31 16 9 0 24 6 31 13 7 7 40 25 73 40 33 16 83 39 111 53 28
13 62 24 75 24 14 0 34 6 45 14 11 8 42 17 69 21 28 3 68 12 90 20 22 7 49 16
60 19 11 2 151 4 310 3 249 -2 294 -4 315 -18z"/>
<path d="M1754 3635 c-4 -8 -11 -15 -18 -15 -6 0 -30 -9 -51 -21 -22 -12 -67
-27 -100 -34 -104 -24 -179 -47 -195 -60 -8 -7 -33 -16 -55 -20 -22 -3 -47
-13 -55 -20 -8 -7 -26 -16 -40 -20 -73 -22 -250 -172 -250 -212 0 -6 -9 -22
-21 -37 -27 -35 -14 -55 17 -25 13 12 24 29 24 36 0 17 96 113 130 131 14 7
43 24 65 37 22 14 46 25 53 25 17 0 15 -65 -3 -93 -10 -16 -16 -65 -21 -167
-4 -111 -10 -157 -26 -198 -20 -50 -20 -54 -3 -72 15 -16 16 -26 7 -67 -6 -26
-13 -140 -16 -253 -5 -171 -9 -215 -26 -264 -11 -33 -20 -69 -20 -81 0 -12 -8
-33 -17 -46 -10 -13 -23 -33 -29 -44 -16 -31 -74 -57 -111 -50 -44 8 -41 -6 5
-28 33 -15 41 -16 78 -3 39 14 104 63 104 78 0 5 9 17 20 28 11 11 20 28 20
38 0 10 7 28 16 41 9 12 20 48 24 79 4 32 15 83 24 115 9 32 16 93 16 135 0
114 20 344 32 369 6 12 7 34 3 50 -9 34 -8 47 3 198 5 67 15 135 24 155 8 19
22 55 29 80 13 42 17 45 84 71 39 15 84 28 101 28 17 1 43 10 57 21 14 11 31
20 38 20 19 0 118 69 129 90 9 17 7 20 -15 20 -14 0 -28 -7 -31 -15z"/>
<path d="M2503 3246 c-57 -41 -90 -72 -103 -97 -7 -13 -19 -27 -25 -31 -7 -4
-16 -23 -19 -42 -4 -19 -13 -39 -21 -46 -8 -7 -15 -23 -15 -37 0 -13 -7 -37
-15 -53 -14 -27 -13 -32 6 -64 11 -20 36 -45 55 -57 32 -20 36 -20 59 -5 30
20 31 30 5 63 -18 23 -19 35 -13 92 3 39 16 84 30 110 12 24 23 49 23 56 0 6
20 32 46 56 25 24 49 52 55 62 14 26 -28 21 -68 -7z"/>
<path d="M2138 3113 c7 -3 16 -2 19 1 4 3 -2 6 -13 5 -11 0 -14 -3 -6 -6z"/>
<path d="M2045 3024 c-9 -25 -28 -57 -41 -71 -15 -16 -24 -38 -24 -57 0 -33
-59 -106 -85 -106 -8 0 -26 -12 -40 -26 -23 -23 -30 -25 -51 -15 -34 15 -36
14 -24 -10 7 -13 17 -18 27 -15 9 4 21 -1 28 -10 15 -21 45 -12 45 14 0 11 6
25 14 31 22 19 54 -3 72 -50 9 -22 28 -48 42 -59 33 -26 86 -26 112 0 24 24
18 40 -14 40 -40 0 -53 21 -59 93 -4 60 -3 69 16 82 28 20 34 19 42 -5 4 -12
15 -20 28 -20 19 0 17 4 -16 36 -42 41 -46 63 -17 89 28 25 24 56 -9 82 l-28
22 -18 -45z"/>
<path d="M1570 3046 c-6 -9 -27 -18 -46 -22 -19 -3 -34 -12 -34 -19 0 -10 7
-11 35 -2 35 10 73 42 63 52 -3 3 -11 -1 -18 -9z"/>
<path d="M1430 2980 c-13 -8 -13 -10 2 -10 9 0 20 5 23 10 8 13 -5 13 -25 0z"/>
<path d="M1815 2980 c3 -5 10 -10 16 -10 5 0 9 5 9 10 0 6 -7 10 -16 10 -8 0
-12 -4 -9 -10z"/>
<path d="M1693 2927 c-4 -7 -20 -37 -34 -68 -15 -31 -32 -60 -38 -63 -7 -5
-11 -47 -11 -112 0 -100 1 -106 26 -129 55 -51 118 -53 144 -5 9 16 6 19 -22
22 -36 3 -61 39 -71 102 -8 51 6 76 43 76 34 0 39 14 10 30 -11 6 -20 21 -20
34 0 13 9 31 20 41 28 25 25 47 -10 67 -22 13 -31 14 -37 5z"/>
<path d="M1872 2905 c0 -16 2 -22 5 -12 2 9 2 23 0 30 -3 6 -5 -1 -5 -18z"/>
<path d="M2495 2910 c-3 -5 -1 -10 4 -10 6 0 11 5 11 10 0 6 -2 10 -4 10 -3 0
-8 -4 -11 -10z"/>
<path d="M2208 2873 c-26 -29 -27 -53 -2 -53 21 0 54 37 54 60 0 28 -22 25
-52 -7z"/>
<path d="M2157 2724 c-4 -4 -7 -14 -7 -23 0 -11 3 -12 11 -4 6 6 10 16 7 23
-2 6 -7 8 -11 4z"/>
<path d="M3758 2488 c-24 -8 -28 -16 -30 -51 -3 -86 5 -181 18 -213 18 -44 18
-142 -1 -187 -8 -20 -15 -48 -15 -62 0 -15 7 -33 15 -41 19 -19 19 -51 0 -84
-9 -16 -14 -55 -15 -107 0 -52 -7 -104 -20 -145 -11 -34 -20 -74 -20 -88 0
-39 -45 -121 -81 -151 -37 -30 -34 -45 6 -35 31 8 95 73 95 97 0 9 9 24 20 34
11 10 20 30 20 45 0 15 9 35 20 45 13 11 20 31 20 52 0 19 8 53 19 76 20 45
30 152 33 342 1 85 6 118 20 145 23 44 23 53 -2 75 -18 16 -20 31 -20 131 0
102 -2 114 -19 124 -23 12 -27 12 -63 -2z"/>
<path d="M2825 2402 c-20 -15 -35 -53 -29 -76 3 -15 -1 -34 -11 -50 -15 -22
-15 -31 -5 -56 10 -24 10 -70 -1 -227 -16 -241 -15 -262 5 -301 9 -17 20 -61
25 -98 11 -75 34 -114 75 -128 43 -16 54 6 22 44 l-26 32 3 362 c2 198 5 366
6 371 4 21 -12 111 -22 123 -11 13 -27 15 -42 4z"/>
<path d="M3040 2290 c-31 -61 -27 -121 11 -165 18 -20 48 -40 71 -47 53 -16
62 -36 47 -101 -12 -56 -9 -110 12 -222 19 -105 76 -171 125 -144 31 16 30 37
-1 49 -42 16 -48 50 -48 255 0 126 -4 192 -11 197 -6 4 -31 5 -56 2 -42 -5
-48 -3 -92 39 -57 53 -61 81 -18 119 37 32 39 58 5 58 -19 0 -29 -10 -45 -40z"/>
<path d="M3524 2320 c-30 -12 -34 -21 -41 -87 -11 -114 -8 -146 20 -186 27
-40 68 -77 85 -77 5 0 15 7 22 15 10 12 8 20 -10 42 -19 25 -21 37 -19 156 2
102 -1 131 -12 138 -17 10 -18 10 -45 -1z"/>
<path d="M1503 2126 c-26 -23 -27 -25 -8 -31 59 -19 62 -23 69 -71 14 -105 7
-216 -20 -309 -16 -53 -35 -95 -45 -103 -11 -7 -19 -19 -19 -27 0 -7 -15 -24
-32 -36 -79 -55 -58 -84 21 -31 71 48 151 169 167 252 4 19 13 47 20 62 9 18
14 64 14 137 0 109 0 111 -31 146 -39 44 -92 49 -136 11z"/>
<path d="M2502 2054 c-29 -20 -28 -38 4 -53 l27 -12 -7 -263 c-9 -312 -5 -351
36 -395 34 -37 59 -37 72 0 7 21 4 30 -18 52 -30 30 -31 43 -11 157 21 116 32
429 15 459 -36 68 -74 86 -118 55z"/>
<path d="M2422 1910 c0 -14 2 -19 5 -12 2 6 2 18 0 25 -3 6 -5 1 -5 -13z"/>
<path d="M2276 1817 c-19 -14 -35 -107 -36 -203 0 -55 23 -97 59 -107 23 -6
31 0 55 37 27 42 33 206 9 244 -29 45 -54 53 -87 29z"/>
<path d="M2064 1780 c-33 -13 -39 -29 -40 -100 0 -36 -6 -75 -12 -86 -9 -17
-8 -25 3 -40 9 -11 15 -43 15 -79 1 -111 66 -205 115 -165 22 18 19 36 -9 57
l-25 18 11 193 c6 106 9 194 7 196 -11 10 -47 14 -65 6z"/>
<path d="M1915 1743 c-62 -16 -128 -116 -152 -231 -12 -60 -12 -79 -2 -103 16
-40 63 -65 95 -50 29 13 31 37 4 51 -28 15 -26 72 5 174 19 62 34 90 60 116
48 47 46 57 -10 43z"/>
<path d="M1402 3998 c-20 -20 -14 -38 13 -38 15 0 25 -6 25 -15 0 -20 39 -40
53 -26 14 14 -9 41 -34 41 -11 0 -19 6 -19 14 0 22 -24 38 -38 24z"/>
<path d="M3247 3972 c-21 -23 -22 -61 -2 -68 24 -10 45 15 45 52 0 38 -17 45
-43 16z"/>
<path d="M1310 3963 c0 -29 52 -105 64 -93 6 6 6 18 -2 32 -6 13 -12 34 -14
48 -4 31 -48 43 -48 13z"/>
<path d="M3590 3869 c-56 -21 -91 -119 -53 -150 15 -13 16 -11 9 24 -7 36 -5
40 46 87 51 48 51 59 -2 39z"/>
<path d="M943 3837 c-39 -26 -41 -49 -9 -85 14 -15 41 -45 60 -66 20 -22 36
-43 36 -48 0 -12 38 -10 45 2 9 15 -14 40 -35 40 -12 0 -21 10 -25 29 -3 16
-17 37 -31 45 -27 19 -32 57 -9 76 16 13 20 30 8 29 -5 0 -23 -10 -40 -22z"/>
<path d="M3717 3830 c14 -16 30 -30 35 -30 17 0 7 29 -14 44 -38 27 -50 18
-21 -14z"/>
<path d="M3658 3703 c-7 -16 -23 -29 -36 -31 -18 -3 -20 -7 -12 -23 13 -23 38
-25 47 -3 3 8 17 20 30 25 18 6 23 15 21 31 -5 34 -34 34 -50 1z"/>
<path d="M1107 3696 c-3 -8 -2 -18 3 -21 13 -8 24 15 12 27 -6 6 -11 4 -15 -6z"/>
<path d="M3565 3680 c3 -5 10 -10 16 -10 5 0 9 5 9 10 0 6 -7 10 -16 10 -8 0
-12 -4 -9 -10z"/>
<path d="M633 3537 c-35 -35 -25 -61 19 -49 26 6 36 74 10 71 -4 0 -17 -10
-29 -22z"/>
<path d="M3946 3515 c-13 -14 -27 -25 -31 -25 -14 0 -94 -55 -100 -69 -3 -8 1
-21 9 -29 12 -12 16 -11 32 14 23 36 33 44 59 44 11 0 25 10 30 23 14 31 69
36 85 7 6 -11 16 -18 21 -14 12 7 -50 74 -69 74 -7 0 -23 -11 -36 -25z"/>
<path d="M685 3481 c-6 -11 46 -63 82 -82 41 -22 39 2 -2 38 -51 44 -72 56
-80 44z"/>
<path d="M3861 3354 c0 -11 3 -14 6 -6 3 7 2 16 -1 19 -3 4 -6 -2 -5 -13z"/>
<path d="M425 3180 c4 -6 22 -17 41 -25 19 -8 42 -28 52 -45 15 -28 21 -31 51
-26 18 3 36 8 40 11 8 9 -28 34 -59 42 -14 3 -38 17 -53 30 -28 23 -84 33 -72
13z"/>
<path d="M375 3043 c-50 -13 -46 -25 17 -57 35 -17 75 -39 89 -49 22 -15 28
-15 38 -4 11 14 7 17 -79 57 -8 4 -16 19 -18 34 -3 26 -9 28 -47 19z"/>
<path d="M286 2682 c-7 -12 19 -19 99 -26 57 -6 58 -5 30 8 -40 18 -122 29
-129 18z"/>
<path d="M4040 1094 c0 -9 5 -14 12 -12 18 6 21 28 4 28 -9 0 -16 -7 -16 -16z"/>
<path d="M3817 866 c-6 -15 22 -46 41 -46 22 0 12 23 -19 48 -14 10 -18 10
-22 -2z"/>
<path d="M809 794 c-10 -13 -10 -17 1 -24 17 -10 30 -4 30 15 0 22 -16 26 -31
9z"/>
<path d="M1172 513 c2 -10 10 -18 18 -18 8 0 16 8 18 18 2 12 -3 17 -18 17
-15 0 -20 -5 -18 -17z"/>
<path d="M3220 422 c0 -5 7 -16 16 -23 14 -12 16 -11 13 5 -4 20 -29 35 -29
18z"/>
<path d="M2847 293 c-14 -13 -6 -33 13 -33 13 0 20 7 20 20 0 19 -20 27 -33
13z"/>
<path d="M2681 266 c-14 -16 -4 -46 14 -46 19 0 27 17 20 40 -7 23 -18 25 -34
6z"/>
<path d="M2380 209 c0 -5 5 -7 10 -4 6 3 10 8 10 11 0 2 -4 4 -10 4 -5 0 -10
-5 -10 -11z"/>
</g>
</svg>
